<svg width="400" height="400" viewBox="0 0 400 400" fill="none" xmlns="http://www.w3.org/2000/svg">
<path d="M146.5 35C140.5 48.2 128.333 48.1667 123 46.5C95.6667 121.667 40.4685 274.59 37 284.5C34.5 291.643 35.7671 298.87 43.0001 301.5C105.333 324.167 231 370.2 243 375C255 379.8 261.333 371.333 263 366.5C293.333 281.833 355.6 108.2 362 91C368.4 73.8 356.667 65.5 350 63.5L223.5 18.5C214.3 29.3 206.333 26 203.5 23C193.5 39.4 179.333 34.5 173.5 30C164.7 42.8 151.833 38.6667 146.5 35Z" fill="#B77759"/>
<rect x="264.183" y="53" width="88.4859" height="86.6252" rx="14" transform="rotate(20.361 264.183 53)" fill="url(#paint0_linear_704_237)"/>
<rect x="228.14" y="150" width="88.4859" height="86.6252" rx="14" transform="rotate(20.361 228.14 150)" fill="url(#paint1_linear_704_237)"/>
<rect x="127.14" y="113" width="88.4859" height="86.6252" rx="14" transform="rotate(20.361 127.14 113)" fill="url(#paint2_linear_704_237)"/>
<rect x="91.1396" y="209" width="88.4859" height="86.6252" rx="14" transform="rotate(20.361 91.1396 209)" fill="url(#paint3_linear_704_237)"/>
<rect x="192.097" y="247" width="88.4859" height="86.6252" rx="14" transform="rotate(20.361 192.097 247)" fill="url(#paint4_linear_704_237)"/>
<path d="M177 43.5C167.8 55.9 154.833 52.6667 149.5 49.5C146.666 57.3333 140 75.8 136 87C132 98.2 138.666 102.667 142.5 103.5C157.166 108.833 189.3 120.5 200.5 124.5C211.7 128.5 217.166 120.5 218.5 116C223 103.5 233.3 75.2 238.5 62C243.7 48.8 235.666 43.1667 231 42L210 34C199.6 51.2 183.666 47.5 177 43.5Z" fill="url(#paint5_linear_704_237)"/>
<defs>
<linearGradient id="paint0_linear_704_237" x1="284.713" y1="53" x2="330.297" y2="140.583" gradientUnits="userSpaceOnUse">
<stop stop-color="#FAE3D8"/>
<stop offset="1" stop-color="#B77759"/>
</linearGradient>
<linearGradient id="paint1_linear_704_237" x1="249.288" y1="150" x2="294.267" y2="237.249" gradientUnits="userSpaceOnUse">
<stop stop-color="#FBE3D8"/>
<stop offset="1" stop-color="#B77759"/>
</linearGradient>
<linearGradient id="paint2_linear_704_237" x1="147.89" y1="113" x2="193.665" y2="200.26" gradientUnits="userSpaceOnUse">
<stop stop-color="#FBE3D8"/>
<stop offset="1" stop-color="#B77759"/>
</linearGradient>
<linearGradient id="paint3_linear_704_237" x1="111.573" y1="209" x2="157.351" y2="296.587" gradientUnits="userSpaceOnUse">
<stop stop-color="#FBE3D8"/>
<stop offset="1" stop-color="#B77759"/>
</linearGradient>
<linearGradient id="paint4_linear_704_237" x1="213.275" y1="247" x2="258.194" y2="334.248" gradientUnits="userSpaceOnUse">
<stop stop-color="#FBE3D8"/>
<stop offset="1" stop-color="#B77759"/>
</linearGradient>
<linearGradient id="paint5_linear_704_237" x1="187" y1="51" x2="197.5" y2="122" gradientUnits="userSpaceOnUse">
<stop stop-color="#FBE3D8"/>
<stop offset="1" stop-color="#B77658"/>
</linearGradient>
</defs>
</svg>
