<svg width="400" height="400" viewBox="0 0 400 400" fill="none" xmlns="http://www.w3.org/2000/svg">
<path d="M211.5 376.5C164.3 392.5 144.5 373.5 125.5 356.5C87.5001 332.773 40.5 330 23 252.5C5.50005 175 26 149 54.5 104C83 59 78.5 59.0001 158.5 30.0001C238.5 1.00014 259 57.5001 299 70.5001C339 83.5001 356 125.5 367.5 151C379 176.5 384 244.5 364.5 281.5C345 318.5 316.5 332 287 341.5C261.704 349.646 270.5 356.5 211.5 376.5Z" fill="url(#paint0_radial_705_469)"/>
<path d="M310.369 152.792C318.263 187.104 310.751 188.807 300.205 189.94C289.437 196.287 275.705 188.944 269.703 173.445C263.7 157.946 279.1 157.643 276.013 143.467C274.072 134.551 300.5 109.901 310.369 152.792Z" fill="#B77759" fill-opacity="0.2"/>
<path d="M317.369 149.792C325.263 184.104 317.751 185.807 307.205 186.94C296.437 193.287 282.705 185.944 276.703 170.445C270.7 154.946 286.1 154.643 283.013 140.467C281.072 131.551 307.5 106.901 317.369 149.792Z" fill="url(#paint1_linear_705_469)"/>
<path d="M73.4653 162.874C107.465 172.074 92.2986 200.707 80.4653 213.874C64.4652 224.874 50.4653 205.374 50.4653 200.874C50.4653 196.374 30.9653 151.374 73.4653 162.874Z" fill="#B77759" fill-opacity="0.2"/>
<path d="M78.4999 156C112.5 165.2 97.3333 193.833 85.4999 207C69.4999 218 55.4999 198.5 55.4999 194C55.4999 189.5 35.9999 144.5 78.4999 156Z" fill="url(#paint2_linear_705_469)"/>
<path d="M173.742 76.0267C208.242 104.527 172.742 119.486 155.242 123.026C136.211 126.876 127.255 112.027 130.742 105.527C141.741 85.0261 139.798 47.9859 173.742 76.0267Z" fill="#B77759" fill-opacity="0.2"/>
<path d="M182 72.5003C216.5 101 181 115.96 163.5 119.5C144.469 123.35 135.512 108.5 139 102C149.999 81.4997 148.056 44.4595 182 72.5003Z" fill="url(#paint3_linear_705_469)"/>
<path d="M227.067 290.59C209.835 262.371 228.647 247.945 240.208 244.259C269.51 230.894 277.648 246.379 273.305 261.157C268.963 275.935 272.119 282.105 271.751 288.613C271.242 297.599 248.608 325.865 227.067 290.59Z" fill="#B77759" fill-opacity="0.2"/>
<path d="M237 293.5C218.2 266.3 236.167 250.833 247.5 246.5C276 231.5 285 246.5 281.5 261.5C278 276.5 281.5 282.481 281.5 289C281.5 298 260.5 327.5 237 293.5Z" fill="url(#paint4_linear_705_469)"/>
<path d="M126.797 272.444C146.839 295.749 128.13 302.611 117.797 301.944C94.7967 301.944 96.7969 293.444 94.2969 281.444C91.7969 269.444 105.297 247.444 126.797 272.444Z" fill="#B77759" fill-opacity="0.2"/>
<path d="M133.5 268C153.542 291.305 134.833 298.167 124.5 297.5C101.5 297.5 103.5 289 101 277C98.5 265 112 243 133.5 268Z" fill="url(#paint5_linear_705_469)"/>
<path d="M199.339 120.609C213.732 106.256 218.325 119.283 218.055 126.536C218.387 142.66 213.003 141.368 205.478 143.277C197.954 145.185 183.898 136.007 199.339 120.609Z" fill="#B77759" fill-opacity="0.2"/>
<path d="M203.339 119.609C217.732 105.256 222.325 118.283 222.055 125.536C222.387 141.66 217.003 140.368 209.478 142.277C201.954 144.185 187.898 135.007 203.339 119.609Z" fill="#B77759"/>
<path d="M301.989 279.549C287.342 265.454 300.271 260.593 307.528 260.715C323.643 260.05 322.462 265.46 324.525 272.943C326.588 280.427 317.701 294.669 301.989 279.549Z" fill="#B77759" fill-opacity="0.2"/>
<path d="M303.989 276.549C289.342 262.454 302.271 257.593 309.528 257.715C325.643 257.05 324.462 262.46 326.525 269.943C328.588 277.427 319.701 291.669 303.989 276.549Z" fill="#B77759"/>
<path d="M118.989 218.549C104.342 204.454 117.271 199.593 124.528 199.715C140.643 199.05 139.462 204.46 141.525 211.943C143.588 219.427 134.701 233.669 118.989 218.549Z" fill="#B77759"/>
<path d="M116.989 222.549C102.342 208.454 115.271 203.593 122.528 203.715C138.643 203.05 137.462 208.46 139.525 215.943C141.588 223.427 132.701 237.669 116.989 222.549Z" fill="#B77759" fill-opacity="0.2"/>
<defs>
<radialGradient id="paint0_radial_705_469" cx="0" cy="0" r="1" gradientUnits="userSpaceOnUse" gradientTransform="translate(197 202) rotate(88.1689) scale(391.2 391.636)">
<stop offset="0.134615" stop-color="#FEE4AB"/>
<stop offset="0.898287" stop-color="#DBAD82"/>
</radialGradient>
<linearGradient id="paint1_linear_705_469" x1="288.665" y1="127.506" x2="309" y2="253" gradientUnits="userSpaceOnUse">
<stop stop-color="#B77759"/>
<stop offset="1" stop-color="#513527"/>
</linearGradient>
<linearGradient id="paint2_linear_705_469" x1="75.1771" y1="154.126" x2="75" y2="258" gradientUnits="userSpaceOnUse">
<stop stop-color="#B77759"/>
<stop offset="1" stop-color="#513527"/>
</linearGradient>
<linearGradient id="paint3_linear_705_469" x1="180.241" y1="68.7953" x2="180.5" y2="167" gradientUnits="userSpaceOnUse">
<stop stop-color="#B77759"/>
<stop offset="1" stop-color="#513527"/>
</linearGradient>
<linearGradient id="paint4_linear_705_469" x1="255.519" y1="240.287" x2="256" y2="361.5" gradientUnits="userSpaceOnUse">
<stop stop-color="#B77759"/>
<stop offset="1" stop-color="#513527"/>
</linearGradient>
<linearGradient id="paint5_linear_705_469" x1="121.542" y1="256.556" x2="131.5" y2="353.5" gradientUnits="userSpaceOnUse">
<stop stop-color="#B77759"/>
<stop offset="1" stop-color="#513527"/>
</linearGradient>
</defs>
</svg>
