<svg width="400" height="400" viewBox="0 0 400 400" fill="none" xmlns="http://www.w3.org/2000/svg">
<path d="M160.597 151.781C119.597 93.7807 172.098 61.7808 199.597 71.7809C199.597 69.7807 202.597 22.3904 221.098 6.78102C230.097 -0.81232 233.097 9.28105 229.098 11.781C213.597 25.2808 209.097 59.7808 209.097 72.7808C272.597 62.7808 259.597 137.281 245.098 151.781H160.597Z" fill="url(#paint0_linear_704_188)"/>
<path d="M95.0974 151.002C81.4974 151.402 78.764 165.5 77.0974 171.502C58.2158 239.501 20.0524 377.4 18.4524 385C16.8524 392.6 19.4521 395.5 26.9524 395.5C140.119 395.833 368.514 395.5 376.952 395.5C384.453 395.5 382.953 389.5 381.452 385L329.097 171.002C324.297 153.402 319.097 151.002 310.097 151.002C242.931 150.835 108.697 150.601 95.0974 151.002Z" fill="url(#paint1_linear_704_188)"/>
<defs>
<linearGradient id="paint0_linear_704_188" x1="206.952" y1="93" x2="200.767" y2="151.781" gradientUnits="userSpaceOnUse">
<stop stop-color="#E5665D"/>
<stop offset="1" stop-color="#F8E0E0"/>
</linearGradient>
<linearGradient id="paint1_linear_704_188" x1="199.952" y1="182.5" x2="199.952" y2="215.5" gradientUnits="userSpaceOnUse">
<stop stop-color="#B77658"/>
<stop offset="1" stop-color="#FEE4AB"/>
</linearGradient>
</defs>
</svg>
