<svg width="121" height="58" viewBox="0 0 121 58" fill="none" xmlns="http://www.w3.org/2000/svg">
<g filter="url(#filter0_diii_777_821)">
<rect x="4" width="113" height="50" rx="25" fill="#F7D7D0"/>
</g>
<path d="M95.2193 18.7124L102.329 25.3096M102.329 25.3096L95.2193 31.9068M102.329 25.3096L85.2656 25.3096" stroke="#70503D" stroke-width="1.78571" stroke-linecap="round" stroke-linejoin="round"/>
<path d="M26.712 32.264C25.832 32.264 25.024 32.12 24.288 31.832C23.568 31.528 22.96 31.104 22.464 30.56C22.256 30.384 22.16 30.208 22.176 30.032C22.192 29.84 22.28 29.672 22.44 29.528C22.744 29.272 23.096 29.304 23.496 29.624C23.864 30.04 24.328 30.36 24.888 30.584C25.464 30.808 26.088 30.92 26.76 30.92C27.544 30.92 28.208 30.752 28.752 30.416C29.312 30.064 29.592 29.52 29.592 28.784C29.592 28.128 29.328 27.672 28.8 27.416C28.272 27.16 27.464 26.92 26.376 26.696C25.704 26.552 25.064 26.376 24.456 26.168C23.864 25.96 23.384 25.648 23.016 25.232C22.648 24.8 22.464 24.208 22.464 23.456C22.464 22.768 22.648 22.184 23.016 21.704C23.4 21.224 23.904 20.856 24.528 20.6C25.152 20.344 25.816 20.216 26.52 20.216C28.088 20.216 29.28 20.704 30.096 21.68C30.32 21.84 30.432 22.008 30.432 22.184C30.432 22.36 30.352 22.52 30.192 22.664C30.032 22.824 29.864 22.896 29.688 22.88C29.528 22.848 29.352 22.76 29.16 22.616C28.568 21.912 27.696 21.56 26.544 21.56C25.712 21.56 25.072 21.744 24.624 22.112C24.176 22.464 23.952 22.904 23.952 23.432C23.952 24.024 24.192 24.448 24.672 24.704C25.168 24.944 25.928 25.176 26.952 25.4C27.672 25.56 28.344 25.76 28.968 26C29.608 26.24 30.12 26.576 30.504 27.008C30.888 27.44 31.08 28.04 31.08 28.808C31.08 29.832 30.68 30.664 29.88 31.304C29.096 31.944 28.04 32.264 26.712 32.264ZM38.2562 32.264C37.2322 32.264 36.4642 32.048 35.9522 31.616C35.4402 31.184 35.1842 30.408 35.1842 29.288V21.848H33.4802C32.9522 21.848 32.6882 21.616 32.6882 21.152C32.6882 20.72 32.9522 20.504 33.4802 20.504H35.1842V17.072C35.1842 16.544 35.4242 16.28 35.9042 16.28C36.3842 16.28 36.6242 16.544 36.6242 17.072V20.504H39.3362C39.8642 20.504 40.1282 20.72 40.1282 21.152C40.1282 21.616 39.8642 21.848 39.3362 21.848H36.6242V29.048C36.6242 29.768 36.7762 30.264 37.0802 30.536C37.3842 30.792 37.8562 30.92 38.4962 30.92C38.5762 30.92 38.6562 30.92 38.7362 30.92C38.8322 30.904 38.9202 30.896 39.0002 30.896C39.3202 30.88 39.5842 30.896 39.7922 30.944C40.0162 30.976 40.1282 31.144 40.1282 31.448C40.1282 31.8 39.9362 32.024 39.5522 32.12C39.1682 32.216 38.7362 32.264 38.2562 32.264ZM45.8871 32.216C44.7671 32.232 43.8551 31.976 43.1511 31.448C42.4631 30.92 42.1191 30.152 42.1191 29.144C42.1191 28.376 42.3751 27.704 42.8871 27.128C43.4151 26.552 44.0791 26.104 44.8791 25.784C45.6951 25.448 46.5351 25.28 47.3991 25.28C48.5831 25.28 49.5191 25.56 50.2071 26.12V24.152C50.2071 23.08 49.9831 22.384 49.5351 22.064C49.0871 21.728 48.3671 21.56 47.3751 21.56C46.8471 21.56 46.2631 21.64 45.6231 21.8C44.9991 21.96 44.4311 22.168 43.9191 22.424C43.4391 22.616 43.0951 22.544 42.8871 22.208C42.6471 21.792 42.7751 21.472 43.2711 21.248C43.8631 20.944 44.5271 20.696 45.2631 20.504C46.0151 20.312 46.7191 20.216 47.3751 20.216C48.8311 20.216 49.9031 20.496 50.5911 21.056C51.2791 21.616 51.6231 22.648 51.6231 24.152V30.512C51.6231 30.72 51.6631 30.848 51.7431 30.896C51.8231 30.944 51.9911 30.968 52.2471 30.968C52.4551 30.968 52.6311 31.008 52.7751 31.088C52.9191 31.152 52.9911 31.264 52.9911 31.424C52.9911 31.824 52.7911 32.056 52.3911 32.12C52.2631 32.152 52.1271 32.176 51.9831 32.192C51.8391 32.208 51.7031 32.216 51.5751 32.216C51.0311 32.216 50.6791 32.104 50.5191 31.88C50.3591 31.656 50.2631 31.232 50.2311 30.608C49.7351 31.152 49.0791 31.552 48.2631 31.808C47.4471 32.064 46.6551 32.2 45.8871 32.216ZM45.9591 30.896C46.7271 30.88 47.4391 30.76 48.0951 30.536C48.7671 30.312 49.2951 29.992 49.6791 29.576C50.0791 29.144 50.2631 28.624 50.2311 28.016C50.1831 27.52 49.9111 27.152 49.4151 26.912C48.9191 26.656 48.2791 26.536 47.4951 26.552C46.8391 26.552 46.2071 26.664 45.5991 26.888C44.9911 27.112 44.4951 27.424 44.1111 27.824C43.7431 28.208 43.5591 28.656 43.5591 29.168C43.5591 29.76 43.7831 30.2 44.2311 30.488C44.6791 30.76 45.2551 30.896 45.9591 30.896ZM56.4028 32C55.9068 32 55.6588 31.736 55.6588 31.208V21.296C55.6588 20.768 55.9148 20.504 56.4268 20.504C56.6188 20.504 56.7788 20.56 56.9068 20.672C57.0508 20.768 57.1228 20.936 57.1228 21.176V22.496C57.4428 21.824 57.9468 21.28 58.6348 20.864C59.3388 20.432 60.1148 20.216 60.9628 20.216C61.3788 20.216 61.7068 20.28 61.9468 20.408C62.1868 20.52 62.3068 20.72 62.3068 21.008C62.3068 21.248 62.2348 21.424 62.0908 21.536C61.9628 21.648 61.8028 21.696 61.6108 21.68C61.4988 21.68 61.3708 21.672 61.2268 21.656C61.0988 21.64 60.9628 21.632 60.8188 21.632C60.1468 21.632 59.5308 21.792 58.9708 22.112C58.4108 22.416 57.9628 22.832 57.6268 23.36C57.3068 23.872 57.1468 24.456 57.1468 25.112V31.208C57.1468 31.736 56.8988 32 56.4028 32ZM69.1703 32.264C68.1463 32.264 67.3783 32.048 66.8663 31.616C66.3543 31.184 66.0983 30.408 66.0983 29.288V21.848H64.3943C63.8663 21.848 63.6023 21.616 63.6023 21.152C63.6023 20.72 63.8663 20.504 64.3943 20.504H66.0983V17.072C66.0983 16.544 66.3383 16.28 66.8183 16.28C67.2983 16.28 67.5383 16.544 67.5383 17.072V20.504H70.2503C70.7783 20.504 71.0423 20.72 71.0423 21.152C71.0423 21.616 70.7783 21.848 70.2503 21.848H67.5383V29.048C67.5383 29.768 67.6903 30.264 67.9943 30.536C68.2983 30.792 68.7703 30.92 69.4103 30.92C69.4903 30.92 69.5703 30.92 69.6503 30.92C69.7463 30.904 69.8343 30.896 69.9143 30.896C70.2343 30.88 70.4983 30.896 70.7063 30.944C70.9303 30.976 71.0423 31.144 71.0423 31.448C71.0423 31.8 70.8503 32.024 70.4663 32.12C70.0823 32.216 69.6503 32.264 69.1703 32.264Z" fill="#70503F"/>
<defs>
<filter id="filter0_diii_777_821" x="0" y="-3" width="121" height="61" filterUnits="userSpaceOnUse" color-interpolation-filters="sRGB">
<feFlood flood-opacity="0" result="BackgroundImageFix"/>
<feColorMatrix in="SourceAlpha" type="matrix" values="0 0 0 0 0 0 0 0 0 0 0 0 0 0 0 0 0 0 127 0" result="hardAlpha"/>
<feOffset dy="4"/>
<feGaussianBlur stdDeviation="2"/>
<feComposite in2="hardAlpha" operator="out"/>
<feColorMatrix type="matrix" values="0 0 0 0 0 0 0 0 0 0 0 0 0 0 0 0 0 0 0.2 0"/>
<feBlend mode="normal" in2="BackgroundImageFix" result="effect1_dropShadow_777_821"/>
<feBlend mode="normal" in="SourceGraphic" in2="effect1_dropShadow_777_821" result="shape"/>
<feColorMatrix in="SourceAlpha" type="matrix" values="0 0 0 0 0 0 0 0 0 0 0 0 0 0 0 0 0 0 127 0" result="hardAlpha"/>
<feOffset dy="3"/>
<feGaussianBlur stdDeviation="1.5"/>
<feComposite in2="hardAlpha" operator="arithmetic" k2="-1" k3="1"/>
<feColorMatrix type="matrix" values="0 0 0 0 1 0 0 0 0 1 0 0 0 0 1 0 0 0 0.3 0"/>
<feBlend mode="normal" in2="shape" result="effect2_innerShadow_777_821"/>
<feColorMatrix in="SourceAlpha" type="matrix" values="0 0 0 0 0 0 0 0 0 0 0 0 0 0 0 0 0 0 127 0" result="hardAlpha"/>
<feOffset dy="-3"/>
<feGaussianBlur stdDeviation="2"/>
<feComposite in2="hardAlpha" operator="arithmetic" k2="-1" k3="1"/>
<feColorMatrix type="matrix" values="0 0 0 0 0 0 0 0 0 0 0 0 0 0 0 0 0 0 0.2 0"/>
<feBlend mode="normal" in2="effect2_innerShadow_777_821" result="effect3_innerShadow_777_821"/>
<feColorMatrix in="SourceAlpha" type="matrix" values="0 0 0 0 0 0 0 0 0 0 0 0 0 0 0 0 0 0 127 0" result="hardAlpha"/>
<feOffset dy="1"/>
<feGaussianBlur stdDeviation="0.5"/>
<feComposite in2="hardAlpha" operator="arithmetic" k2="-1" k3="1"/>
<feColorMatrix type="matrix" values="0 0 0 0 0.968627 0 0 0 0 0.843137 0 0 0 0 0.815686 0 0 0 1 0"/>
<feBlend mode="normal" in2="effect3_innerShadow_777_821" result="effect4_innerShadow_777_821"/>
</filter>
</defs>
</svg>
